<svg id="visual" viewBox="0 0 960 540" width="960" height="540" xmlns="http://www.w3.org/2000/svg" xmlns:xlink="http://www.w3.org/1999/xlink" version="1.1"><rect x="0" y="0" width="960" height="540" fill="#001220"></rect><defs><linearGradient id="grad1_0" x1="43.8%" y1="0%" x2="100%" y2="100%"><stop offset="14.444444444444446%" stop-color="#6d214f" stop-opacity="1"></stop><stop offset="85.55555555555554%" stop-color="#6d214f" stop-opacity="1"></stop></linearGradient></defs><defs><linearGradient id="grad1_1" x1="43.8%" y1="0%" x2="100%" y2="100%"><stop offset="14.444444444444446%" stop-color="#6d214f" stop-opacity="1"></stop><stop offset="85.55555555555554%" stop-color="#4b234f" stop-opacity="1"></stop></linearGradient></defs><defs><linearGradient id="grad1_2" x1="43.8%" y1="0%" x2="100%" y2="100%"><stop offset="14.444444444444446%" stop-color="#2b2145" stop-opacity="1"></stop><stop offset="85.55555555555554%" stop-color="#4b234f" stop-opacity="1"></stop></linearGradient></defs><defs><linearGradient id="grad1_3" x1="43.8%" y1="0%" x2="100%" y2="100%"><stop offset="14.444444444444446%" stop-color="#2b2145" stop-opacity="1"></stop><stop offset="85.55555555555554%" stop-color="#101b34" stop-opacity="1"></stop></linearGradient></defs><defs><linearGradient id="grad1_4" x1="43.8%" y1="0%" x2="100%" y2="100%"><stop offset="14.444444444444446%" stop-color="#001220" stop-opacity="1"></stop><stop offset="85.55555555555554%" stop-color="#101b34" stop-opacity="1"></stop></linearGradient></defs><defs><linearGradient id="grad2_0" x1="0%" y1="0%" x2="56.3%" y2="100%"><stop offset="14.444444444444446%" stop-color="#6d214f" stop-opacity="1"></stop><stop offset="85.55555555555554%" stop-color="#6d214f" stop-opacity="1"></stop></linearGradient></defs><defs><linearGradient id="grad2_1" x1="0%" y1="0%" x2="56.3%" y2="100%"><stop offset="14.444444444444446%" stop-color="#4b234f" stop-opacity="1"></stop><stop offset="85.55555555555554%" stop-color="#6d214f" stop-opacity="1"></stop></linearGradient></defs><defs><linearGradient id="grad2_2" x1="0%" y1="0%" x2="56.3%" y2="100%"><stop offset="14.444444444444446%" stop-color="#4b234f" stop-opacity="1"></stop><stop offset="85.55555555555554%" stop-color="#2b2145" stop-opacity="1"></stop></linearGradient></defs><defs><linearGradient id="grad2_3" x1="0%" y1="0%" x2="56.3%" y2="100%"><stop offset="14.444444444444446%" stop-color="#101b34" stop-opacity="1"></stop><stop offset="85.55555555555554%" stop-color="#2b2145" stop-opacity="1"></stop></linearGradient></defs><defs><linearGradient id="grad2_4" x1="0%" y1="0%" x2="56.3%" y2="100%"><stop offset="14.444444444444446%" stop-color="#101b34" stop-opacity="1"></stop><stop offset="85.55555555555554%" stop-color="#001220" stop-opacity="1"></stop></linearGradient></defs><g transform="translate(960, 0)"><path d="M0 378C-8.1 295 -16.2 212.1 -43.9 220.7C-71.6 229.3 -118.8 329.5 -144.7 349.2C-170.5 369 -174.9 308.3 -177.8 266.1C-180.7 223.9 -182 200.2 -175.4 175.4C-168.7 150.5 -154 124.6 -177.1 118.3C-200.2 112.1 -261 125.6 -287.3 119C-313.6 112.4 -305.5 85.8 -314.8 62.6C-324.2 39.4 -351.1 19.7 -378 0L0 0Z" fill="#06172a"></path><path d="M0 302.4C-6.5 236 -13 169.7 -35.1 176.5C-57.3 183.4 -95.1 263.6 -115.7 279.4C-136.4 295.2 -139.9 246.6 -142.2 212.9C-144.5 179.1 -145.6 160.2 -140.3 140.3C-135 120.4 -123.2 99.7 -141.7 94.7C-160.1 89.7 -208.8 100.5 -229.9 95.2C-250.9 90 -244.4 68.6 -251.9 50.1C-259.4 31.6 -280.9 15.8 -302.4 0L0 0Z" fill="#1c1f3e"></path><path d="M0 226.8C-4.9 177 -9.7 127.2 -26.3 132.4C-42.9 137.6 -71.3 197.7 -86.8 209.5C-102.3 221.4 -104.9 185 -106.7 159.6C-108.4 134.3 -109.2 120.1 -105.2 105.2C-101.2 90.3 -92.4 74.7 -106.3 71C-120.1 67.3 -156.6 75.4 -172.4 71.4C-188.2 67.5 -183.3 51.5 -188.9 37.6C-194.5 23.7 -210.7 11.8 -226.8 0L0 0Z" fill="#3b224b"></path><path d="M0 151.2C-3.2 118 -6.5 84.8 -17.6 88.3C-28.6 91.7 -47.5 131.8 -57.9 139.7C-68.2 147.6 -70 123.3 -71.1 106.4C-72.3 89.5 -72.8 80.1 -70.1 70.1C-67.5 60.2 -61.6 49.8 -70.8 47.3C-80.1 44.8 -104.4 50.2 -114.9 47.6C-125.5 45 -122.2 34.3 -125.9 25C-129.7 15.8 -140.4 7.9 -151.2 0L0 0Z" fill="#5c2250"></path><path d="M0 75.6C-1.6 59 -3.2 42.4 -8.8 44.1C-14.3 45.9 -23.8 65.9 -28.9 69.8C-34.1 73.8 -35 61.7 -35.6 53.2C-36.1 44.8 -36.4 40 -35.1 35.1C-33.7 30.1 -30.8 24.9 -35.4 23.7C-40 22.4 -52.2 25.1 -57.5 23.8C-62.7 22.5 -61.1 17.2 -63 12.5C-64.8 7.9 -70.2 3.9 -75.6 0L0 0Z" fill="#6d214f"></path></g><g transform="translate(0, 540)"><path d="M0 -378C15.4 -310.5 30.8 -243 43.3 -217.7C55.8 -192.4 65.5 -209.3 100.6 -243C135.8 -276.6 196.4 -327 210 -314.3C223.6 -301.6 190.2 -225.9 200.1 -200.1C210 -174.3 263.4 -198.4 291.8 -195C320.3 -191.6 324 -160.6 325.2 -134.7C326.4 -108.8 325.1 -87.9 333.5 -66.3C341.9 -44.7 359.9 -22.4 378 0L0 0Z" fill="#06172a"></path><path d="M0 -302.4C12.3 -248.4 24.6 -194.4 34.6 -174.2C44.7 -154 52.4 -167.5 80.5 -194.4C108.6 -221.3 157.1 -261.6 168 -251.4C178.9 -241.3 152.1 -180.7 160.1 -160.1C168 -139.5 210.7 -158.7 233.5 -156C256.3 -153.3 259.2 -128.5 260.2 -107.8C261.1 -87 260.1 -70.4 266.8 -53.1C273.5 -35.8 287.9 -17.9 302.4 0L0 0Z" fill="#1c1f3e"></path><path d="M0 -226.8C9.2 -186.3 18.5 -145.8 26 -130.6C33.5 -115.5 39.3 -125.6 60.4 -145.8C81.5 -166 117.8 -196.2 126 -188.6C134.2 -181 114.1 -135.5 120.1 -120.1C126 -104.6 158 -119.1 175.1 -117C192.2 -114.9 194.4 -96.4 195.1 -80.8C195.8 -65.3 195.1 -52.8 200.1 -39.8C205.1 -26.8 216 -13.4 226.8 0L0 0Z" fill="#3b224b"></path><path d="M0 -151.2C6.2 -124.2 12.3 -97.2 17.3 -87.1C22.3 -77 26.2 -83.7 40.3 -97.2C54.3 -110.6 78.6 -130.8 84 -125.7C89.4 -120.6 76.1 -90.4 80 -80C84 -69.7 105.3 -79.4 116.7 -78C128.1 -76.6 129.6 -64.2 130.1 -53.9C130.6 -43.5 130 -35.2 133.4 -26.5C136.7 -17.9 144 -8.9 151.2 0L0 0Z" fill="#5c2250"></path><path d="M0 -75.6C3.1 -62.1 6.2 -48.6 8.7 -43.5C11.2 -38.5 13.1 -41.9 20.1 -48.6C27.2 -55.3 39.3 -65.4 42 -62.9C44.7 -60.3 38 -45.2 40 -40C42 -34.9 52.7 -39.7 58.4 -39C64.1 -38.3 64.8 -32.1 65 -26.9C65.3 -21.8 65 -17.6 66.7 -13.3C68.4 -8.9 72 -4.5 75.6 0L0 0Z" fill="#6d214f"></path></g></svg>